<svg xmlns="http://www.w3.org/2000/svg" width="350" height="389" viewBox="0 0 350 389" version="1.1"><path d="M 168.958 32.559 C 166.506 35.066, 162.104 38.554, 159.175 40.309 C 156.246 42.064, 151.071 45.160, 147.675 47.190 C 139.798 51.897, 119.577 58.482, 105 61.088 C 101.975 61.629, 86 62.321, 69.500 62.627 C 53 62.932, 39.338 63.340, 39.141 63.534 C 38.943 63.727, 41.094 66.015, 43.921 68.619 C 48.545 72.879, 49.038 73.736, 48.835 77.177 C 48.659 80.159, 48.199 81, 46.745 81 C 45.721 81, 45.095 80.655, 45.356 80.234 C 45.616 79.812, 44.743 78.955, 43.415 78.328 C 41.964 77.643, 40.771 77.561, 40.424 78.122 C 39.820 79.101, 39.813 190.146, 40.417 190.750 C 40.608 190.941, 43.742 189.016, 47.382 186.472 C 54 181.845, 54 181.845, 54 131.114 C 54 88.056, 53.778 80.089, 52.532 78.441 C 51.724 77.374, 51.049 76.162, 51.032 75.750 C 51.014 75.338, 60.131 75, 71.290 75 C 90.328 75, 108.950 73.430, 118 71.061 C 132.885 67.166, 138.206 65.486, 143 63.170 C 152.595 58.535, 164.059 51.218, 169.069 46.533 C 171.734 44.040, 174.178 42, 174.500 42 C 174.822 42, 177.204 43.939, 179.793 46.310 C 184.884 50.971, 197.473 59.061, 205.500 62.829 C 210.064 64.972, 219.326 67.893, 231 70.871 C 242.044 73.688, 256.692 75, 277.108 75 C 298.230 75, 298.230 75, 296.615 77.465 C 295.182 79.652, 295 85.663, 295 130.883 C 295 181.837, 295 181.837, 298.750 184.131 C 300.813 185.393, 303.098 187.007, 303.828 187.719 C 304.558 188.431, 306.021 189.476, 307.078 190.042 C 309.124 191.137, 309.089 192.613, 309.492 86.806 C 309.528 77.380, 309.353 76.256, 308.017 77.323 C 307.182 77.989, 305.825 78.465, 305 78.382 C 304.175 78.299, 302.712 78.179, 301.750 78.115 C 298.654 77.911, 299.847 74.257, 304.465 69.805 C 306.920 67.437, 309.058 64.935, 309.215 64.244 C 309.437 63.265, 302.899 62.903, 279.500 62.601 C 246.816 62.178, 241.293 61.475, 220.856 55.133 C 206.098 50.554, 187.284 40.053, 179.547 32.076 C 177.373 29.834, 175.104 28, 174.505 28 C 173.906 28, 171.410 30.052, 168.958 32.559 M 146.140 76.896 C 144.570 80.547, 143.266 82.060, 141.017 82.844 C 138.060 83.875, 136.786 86.926, 139.250 87.077 C 141.211 87.197, 144.155 87.817, 144.462 88.175 C 144.615 88.354, 145.674 90.638, 146.814 93.250 C 147.954 95.862, 149.274 98, 149.746 98 C 150.219 98, 151.398 95.795, 152.367 93.099 C 153.913 88.800, 154.552 88.119, 157.565 87.554 C 161.950 86.731, 162.023 84.456, 157.731 82.409 C 155.453 81.322, 153.908 79.509, 152.632 76.425 C 151.625 73.991, 150.227 72, 149.524 72 C 148.821 72, 147.298 74.203, 146.140 76.896 M 195.542 75.553 C 194.694 77.583, 194 79.633, 194 80.109 C 194 80.584, 192.480 81.608, 190.622 82.385 C 185.887 84.363, 185.460 85.669, 188.957 87.478 C 190.619 88.337, 192.321 89.071, 192.740 89.109 C 193.158 89.146, 194.400 91.027, 195.500 93.287 C 196.600 95.548, 198.010 97.553, 198.633 97.743 C 199.256 97.933, 200.596 96.081, 201.611 93.627 C 202.859 90.609, 204.415 88.734, 206.419 87.832 C 210.554 85.973, 210.730 84.210, 206.938 82.616 C 204.759 81.700, 203.017 79.844, 201.601 76.929 C 200.446 74.549, 198.957 72.436, 198.292 72.232 C 197.628 72.028, 196.391 73.523, 195.542 75.553 M 90.015 120.250 C 90.023 120.388, 90.679 122.300, 91.471 124.500 C 92.264 126.700, 92.932 131.313, 92.956 134.750 C 92.980 138.188, 93.389 141, 93.864 141 C 94.339 141, 95.502 138.975, 96.447 136.500 C 98.162 132.010, 98.176 132, 103.083 132 C 108 132, 108 132, 107.976 141.750 C 107.946 154.186, 106.851 158.901, 103.344 161.702 C 101.143 163.460, 100.897 164.023, 102.121 164.493 C 102.965 164.817, 104.887 164.613, 106.393 164.041 C 109.899 162.708, 118.083 162.701, 121.574 164.028 C 125.515 165.526, 125.673 164.530, 122.133 160.499 C 119 156.930, 119 156.930, 119 144.465 C 119 132, 119 132, 123.536 132 C 127.959 132, 128.119 132.112, 130 136.500 C 131.061 138.975, 132.395 141, 132.964 141 C 133.569 141, 134 138.381, 134 134.711 C 134 130.413, 134.628 127.191, 135.985 124.530 C 137.077 122.388, 137.756 120.423, 137.495 120.162 C 137.234 119.901, 135.229 120.495, 133.039 121.483 C 129.549 123.056, 126.946 123.217, 111.974 122.785 C 101.099 122.471, 94.475 121.875, 93.746 121.146 C 92.769 120.169, 89.970 119.497, 90.015 120.250 M 145.556 122.909 C 145.247 123.409, 146.388 124.990, 148.091 126.423 C 151.187 129.028, 151.187 129.028, 150.843 143.602 C 150.502 158.077, 150.481 158.192, 147.750 160.540 C 146.238 161.840, 145 163.364, 145 163.927 C 145 164.490, 146.238 164.758, 147.750 164.523 C 155.205 163.364, 162.097 163.084, 164.183 163.856 C 168.305 165.381, 169.038 164.005, 165.694 161.020 C 162.500 158.169, 162.500 158.169, 162.179 143.733 C 161.857 129.298, 161.857 129.298, 164.929 126.713 C 166.618 125.292, 168 123.650, 168 123.065 C 168 121.737, 146.373 121.587, 145.556 122.909 M 177.522 122.965 C 177.265 123.380, 178.393 124.911, 180.028 126.367 C 183 129.015, 183 129.015, 183 143.703 C 183 158.266, 182.977 158.414, 180.323 161.185 C 177.192 164.453, 177.782 165.721, 181.718 164.181 C 183.248 163.583, 189.293 162.960, 195.151 162.796 C 201.009 162.633, 205.625 162.211, 205.408 161.857 C 205.191 161.503, 206.147 160.929, 207.532 160.581 C 211.478 159.591, 217.840 153.236, 218.975 149.152 C 220.377 144.103, 220.252 138.538, 218.649 134.702 C 216.952 130.641, 211.207 125.529, 206.836 124.190 C 202.760 122.942, 178.171 121.915, 177.522 122.965 M 217.038 122.750 C 217.059 123.162, 218.807 124.696, 220.922 126.158 C 225.497 129.319, 235.684 141.794, 237.168 146.053 C 238.847 150.868, 237.313 157.906, 233.886 161.107 C 230.739 164.046, 231.358 165.536, 235.166 164.188 C 236.450 163.734, 240.988 163.618, 245.251 163.931 C 249.514 164.244, 253.488 164.338, 254.081 164.140 C 254.675 163.942, 253.706 162.566, 251.928 161.081 C 249.162 158.772, 248.630 157.586, 248.237 152.845 C 247.796 147.524, 247.962 147.057, 252.477 140.904 C 258.172 133.144, 263.256 127.534, 266.548 125.376 C 267.897 124.493, 269 123.372, 269 122.885 C 269 122.398, 264.725 122, 259.500 122 C 250.115 122, 248.836 122.436, 251.218 124.818 C 252.176 125.776, 251.481 126.988, 247.968 130.483 C 243.500 134.930, 243.500 134.930, 240.088 130.839 C 237.219 127.400, 236.861 126.452, 237.838 124.888 C 238.477 123.864, 239 122.796, 239 122.514 C 239 122.231, 234.050 122, 228 122 C 221.950 122, 217.017 122.338, 217.038 122.750 M 193.667 132.667 C 193.300 133.033, 193 137.816, 193 143.294 C 193 153.256, 193 153.256, 197.159 152.591 C 207.322 150.965, 211.855 143.900, 206.832 137.514 C 203.679 133.505, 195.748 130.585, 193.667 132.667 M 40.624 196.750 C 41.647 205.051, 46.248 225.499, 48.181 230.337 C 49.104 232.646, 49.785 233.083, 51.844 232.690 C 53.235 232.424, 54.964 232.433, 55.687 232.710 C 57.358 233.351, 57.406 236.942, 55.750 237.435 C 50.709 238.938, 50.830 238.473, 53.730 245.214 C 55.217 248.671, 58.149 254.650, 60.246 258.500 C 62.343 262.350, 64.945 267.300, 66.030 269.500 C 67.115 271.700, 70.589 276.954, 73.751 281.175 C 76.913 285.396, 80.292 290.278, 81.260 292.023 C 83.020 295.197, 83.020 295.197, 84.827 292.965 C 86.365 291.067, 86.960 290.908, 88.817 291.902 C 90.018 292.545, 91 293.489, 91 294 C 91 295.436, 87.108 297.181, 85.729 296.364 C 82.171 294.256, 103.294 315.630, 108.908 319.819 C 110.884 321.294, 115.291 324.750, 118.702 327.500 C 128.238 335.188, 129.701 336.205, 141.698 343.471 C 148.066 347.328, 153.538 350.007, 154.384 349.683 C 155.202 349.369, 156.107 349.650, 156.396 350.306 C 156.684 350.963, 156.711 350.150, 156.454 348.500 C 156.198 346.850, 156.253 346.063, 156.577 346.750 C 156.901 347.437, 157.804 348, 158.583 348 C 159.363 348, 160 348.482, 160 349.072 C 160 349.661, 161.235 349.998, 162.745 349.822 C 164.255 349.645, 165.553 349.950, 165.630 350.500 C 166.188 354.508, 169 358.213, 169 354.941 C 169 354.359, 169.450 354.160, 170 354.500 C 171.684 355.541, 171.113 354.113, 169 352 C 167.900 350.900, 167 349.393, 167 348.652 C 167 347.911, 161.804 343.973, 155.452 339.902 C 127.219 321.804, 103.584 302.036, 92.202 287 C 90.329 284.525, 87.516 281.075, 85.950 279.334 C 82.893 275.932, 66 248.295, 66 246.694 C 66 246.163, 64.265 241.403, 62.144 236.115 C 58.044 225.890, 55.473 216.256, 54.250 206.540 C 53.510 200.662, 53.416 200.520, 47.500 196.324 C 44.200 193.984, 41.171 192.053, 40.769 192.034 C 40.367 192.015, 40.302 194.137, 40.624 196.750 M 302.767 195.698 C 299.613 197.552, 296.636 199.842, 296.152 200.785 C 295.667 201.728, 294.972 205.538, 294.607 209.250 C 293.409 221.455, 284.065 246.411, 275.003 261.610 C 270.372 269.377, 262.749 280.526, 261.061 282 C 260.746 282.275, 259.167 284.300, 257.552 286.500 C 251.652 294.536, 231.636 313.244, 218.505 322.996 C 211.097 328.498, 204.768 333, 204.441 333 C 204.114 333, 200.544 335.219, 196.506 337.932 C 192.468 340.644, 187.791 343.574, 186.112 344.442 C 181.986 346.576, 180.384 349.528, 183.236 349.743 C 184.382 349.829, 185.586 350.303, 185.910 350.796 C 187.281 352.878, 191.600 352.728, 195.500 350.462 C 197.700 349.183, 200.983 347.446, 202.796 346.600 C 210.729 342.901, 226.721 330.974, 220.597 333.324 C 219.826 333.620, 218.380 333.267, 217.385 332.540 C 215.851 331.418, 215.779 330.972, 216.910 329.608 C 218.945 327.156, 221.865 327.614, 222.589 330.500 C 222.934 331.875, 223.506 332.991, 223.858 332.981 C 224.211 332.971, 228.210 329.933, 232.744 326.231 C 237.278 322.529, 242.341 318.453, 243.994 317.174 C 247.492 314.467, 247.835 313, 244.969 313 C 242.356 313, 241.301 310.271, 243.186 308.386 C 245.054 306.518, 247.793 307.552, 248.192 310.276 C 248.491 312.322, 248.587 312.305, 251.500 309.698 C 256.590 305.142, 263.982 297.535, 263.991 296.844 C 263.996 296.483, 263.181 296.401, 262.180 296.663 C 259.558 297.349, 257.362 294.474, 259 292.500 C 260.609 290.562, 261.907 290.606, 264.195 292.676 C 266.344 294.621, 265.682 295.231, 274.223 283.430 C 281.158 273.848, 296 246.328, 296 243.052 C 296 241.988, 296.457 240.835, 297.016 240.490 C 298.511 239.566, 297.186 238, 294.910 238 C 292.518 238, 291.282 235.317, 292.921 233.683 C 293.573 233.032, 295.503 232.500, 297.209 232.500 C 300.286 232.500, 300.335 232.417, 303.071 222.564 C 305.987 212.065, 309.411 194.622, 308.839 193.181 C 308.653 192.710, 305.920 193.843, 302.767 195.698 M 185.349 194.246 C 185.095 194.656, 185.963 195.482, 187.278 196.081 C 191.864 198.171, 193.394 202.925, 193.097 214.168 C 193.016 217.234, 192.425 218.192, 189.500 220 C 185.656 222.376, 184.984 224, 187.845 224 C 192.058 224, 193 226.911, 193 239.929 C 193 252.200, 193 252.200, 189.500 255.700 C 187.575 257.625, 186 259.493, 185.999 259.850 C 185.999 260.207, 198.486 260.363, 213.749 260.196 C 241.500 259.893, 241.500 259.893, 243.407 263.446 C 246.347 268.922, 247.248 267.826, 246.487 259.703 C 245.705 251.357, 247.100 246.665, 251.606 242.489 C 253.095 241.109, 254.050 239.717, 253.728 239.395 C 252.285 237.951, 246.789 240.410, 244.370 243.582 C 241.763 247, 241.763 247, 225.881 247 C 210 247, 210 247, 210 239 C 210 231, 210 231, 223.974 231 C 237.949 231, 237.949 231, 239.500 234 C 241.573 238.010, 243 237.790, 243 233.460 C 243 228.709, 246.293 222.531, 249.988 220.348 C 251.645 219.369, 253 217.991, 253 217.284 C 253 215.643, 252.327 215.669, 246.877 217.526 C 243.434 218.699, 238.703 218.989, 226.448 218.776 C 210.500 218.500, 210.500 218.500, 210.198 213.250 C 209.895 208, 209.895 208, 224.198 207.923 C 232.064 207.881, 239.227 207.705, 240.116 207.532 C 241.149 207.330, 242.349 208.509, 243.440 210.797 C 244.770 213.585, 245.350 214.060, 246.059 212.939 C 246.560 212.148, 246.976 210.104, 246.985 208.398 C 247.005 204.252, 250.647 199.114, 255.250 196.739 C 257.313 195.675, 259 194.511, 259 194.152 C 259.001 193.239, 185.914 193.332, 185.349 194.246 M 103 194.571 C 103 194.886, 103.675 195.818, 104.500 196.643 C 105.325 197.468, 106 199.585, 106 201.347 C 106 204.826, 101.526 231.353, 99.996 236.944 C 99.478 238.838, 99.283 240.617, 99.563 240.896 C 99.843 241.176, 101.968 239.444, 104.286 237.046 C 109.253 231.908, 115.169 229.043, 122.325 228.310 C 135.221 226.989, 145.884 235.336, 141.840 243.586 C 139.814 247.721, 135.715 250.225, 130.091 250.765 C 125.981 251.160, 123.993 250.742, 119.479 248.533 C 116.423 247.038, 112.956 244.507, 111.774 242.908 C 109.562 239.917, 108 239.166, 108 241.096 C 108 243.490, 103.748 247.943, 99.499 250.001 C 93.550 252.880, 93.196 253.779, 97.722 254.504 C 99.800 254.836, 105.550 256.883, 110.500 259.052 C 115.450 261.221, 121.584 263.379, 124.131 263.847 C 136.700 266.156, 150.671 260.314, 155.433 250.759 C 161.916 237.748, 155.204 222.237, 141.135 217.722 C 134.540 215.605, 124.944 215.507, 118.409 217.489 C 115.709 218.308, 113.396 218.983, 113.269 218.989 C 112.737 219.014, 114.320 209.433, 114.967 208.712 C 115.357 208.279, 123.382 207.693, 132.803 207.411 C 149.930 206.896, 149.930 206.896, 151.444 210.520 C 153.310 214.987, 155 214.218, 155 208.901 C 155 204.473, 158.077 197.568, 160.457 196.655 C 161.306 196.329, 162 195.599, 162 195.031 C 162 194.346, 152.098 194, 132.500 194 C 116.275 194, 103 194.257, 103 194.571 M 68.754 213.722 C 64.009 219.313, 64.009 219.313, 69.754 224.955 C 75.500 230.597, 75.500 230.597, 78.344 227.549 C 79.908 225.872, 82.361 223.256, 83.795 221.735 C 86.402 218.970, 86.402 218.970, 80.985 213.485 C 78.006 210.468, 75.103 208.029, 74.534 208.065 C 73.965 208.101, 71.364 210.647, 68.754 213.722 M 267.096 213.402 C 264.162 216.374, 262.033 219.244, 262.364 219.781 C 262.696 220.318, 264.514 221.491, 266.404 222.387 C 268.339 223.305, 270.419 225.325, 271.164 227.009 C 271.892 228.654, 272.731 230, 273.028 230 C 273.325 230, 275.990 227.548, 278.949 224.551 C 284.952 218.473, 284.995 219.122, 278.101 211.750 C 276.172 209.688, 274.108 208, 273.513 208 C 272.918 208, 270.031 210.431, 267.096 213.402" stroke="none" fill="#d2d6d1" fill-rule="evenodd"/><path d="M 167.573 20.154 C 152.073 34.357, 140.043 41.424, 122.500 46.633 C 105.388 51.714, 92.139 53, 56.913 53 C 29.038 53, 29.038 53, 28.465 55.285 C 28.149 56.541, 28.052 90.404, 28.249 130.535 C 28.638 209.845, 28.493 207.620, 34.590 228 C 39.212 243.449, 41.178 248.355, 48.804 263.473 C 62.419 290.465, 76.276 308.204, 99.142 327.913 C 113.237 340.063, 125.042 348.557, 141 358.034 C 146.775 361.464, 152.637 365.048, 154.027 366 C 158.156 368.827, 173.731 376, 175.740 376 C 176.763 376, 178.028 375.594, 178.550 375.097 C 179.073 374.600, 183.325 372.189, 188 369.737 C 227.005 349.285, 257.634 325.249, 278.838 298.455 C 288.114 286.733, 306.147 254.590, 308.827 245 C 309.366 243.075, 311.171 237.675, 312.840 233 C 315.553 225.398, 316.581 220.848, 320.049 201.083 C 321.533 192.629, 321.301 55.701, 319.800 54.200 C 318.925 53.325, 311.191 53, 291.261 53 C 250.455 53, 238.513 51.356, 216.500 42.706 C 203.296 37.518, 195.460 32.418, 181.995 20.250 C 178.191 16.813, 174.901 14, 174.684 14 C 174.467 14, 171.267 16.770, 167.573 20.154 M 168.958 32.559 C 166.506 35.066, 162.104 38.554, 159.175 40.309 C 156.246 42.064, 151.071 45.160, 147.675 47.190 C 139.798 51.897, 119.577 58.482, 105 61.088 C 101.975 61.629, 86 62.321, 69.500 62.627 C 53 62.932, 39.338 63.340, 39.141 63.534 C 38.943 63.727, 41.094 66.015, 43.921 68.619 C 48.545 72.879, 49.038 73.736, 48.835 77.177 C 48.659 80.159, 48.199 81, 46.745 81 C 45.721 81, 45.095 80.655, 45.356 80.234 C 45.616 79.812, 44.743 78.955, 43.415 78.328 C 41.964 77.643, 40.771 77.561, 40.424 78.122 C 39.820 79.101, 39.813 190.146, 40.417 190.750 C 40.608 190.941, 43.742 189.016, 47.382 186.472 C 54 181.845, 54 181.845, 54 131.114 C 54 88.056, 53.778 80.089, 52.532 78.441 C 51.724 77.374, 51.049 76.162, 51.032 75.750 C 51.014 75.338, 60.131 75, 71.290 75 C 90.328 75, 108.950 73.430, 118 71.061 C 132.885 67.166, 138.206 65.486, 143 63.170 C 152.595 58.535, 164.059 51.218, 169.069 46.533 C 171.734 44.040, 174.178 42, 174.500 42 C 174.822 42, 177.204 43.939, 179.793 46.310 C 184.884 50.971, 197.473 59.061, 205.500 62.829 C 210.064 64.972, 219.326 67.893, 231 70.871 C 242.044 73.688, 256.692 75, 277.108 75 C 298.230 75, 298.230 75, 296.615 77.465 C 295.182 79.652, 295 85.663, 295 130.883 C 295 181.837, 295 181.837, 298.750 184.131 C 300.813 185.393, 303.098 187.007, 303.828 187.719 C 304.558 188.431, 306.021 189.476, 307.078 190.042 C 309.124 191.137, 309.089 192.613, 309.492 86.806 C 309.528 77.380, 309.353 76.256, 308.017 77.323 C 307.182 77.989, 305.825 78.465, 305 78.382 C 304.175 78.299, 302.712 78.179, 301.750 78.115 C 298.654 77.911, 299.847 74.257, 304.465 69.805 C 306.920 67.437, 309.058 64.935, 309.215 64.244 C 309.437 63.265, 302.899 62.903, 279.500 62.601 C 246.816 62.178, 241.293 61.475, 220.856 55.133 C 206.098 50.554, 187.284 40.053, 179.547 32.076 C 177.373 29.834, 175.104 28, 174.505 28 C 173.906 28, 171.410 30.052, 168.958 32.559 M 146.140 76.896 C 144.570 80.547, 143.266 82.060, 141.017 82.844 C 138.060 83.875, 136.786 86.926, 139.250 87.077 C 141.211 87.197, 144.155 87.817, 144.462 88.175 C 144.615 88.354, 145.674 90.638, 146.814 93.250 C 147.954 95.862, 149.274 98, 149.746 98 C 150.219 98, 151.398 95.795, 152.367 93.099 C 153.913 88.800, 154.552 88.119, 157.565 87.554 C 161.950 86.731, 162.023 84.456, 157.731 82.409 C 155.453 81.322, 153.908 79.509, 152.632 76.425 C 151.625 73.991, 150.227 72, 149.524 72 C 148.821 72, 147.298 74.203, 146.140 76.896 M 195.542 75.553 C 194.694 77.583, 194 79.633, 194 80.109 C 194 80.584, 192.480 81.608, 190.622 82.385 C 185.887 84.363, 185.460 85.669, 188.957 87.478 C 190.619 88.337, 192.321 89.071, 192.740 89.109 C 193.158 89.146, 194.400 91.027, 195.500 93.287 C 196.600 95.548, 198.010 97.553, 198.633 97.743 C 199.256 97.933, 200.596 96.081, 201.611 93.627 C 202.859 90.609, 204.415 88.734, 206.419 87.832 C 210.554 85.973, 210.730 84.210, 206.938 82.616 C 204.759 81.700, 203.017 79.844, 201.601 76.929 C 200.446 74.549, 198.957 72.436, 198.292 72.232 C 197.628 72.028, 196.391 73.523, 195.542 75.553 M 90.015 120.250 C 90.023 120.388, 90.679 122.300, 91.471 124.500 C 92.264 126.700, 92.932 131.313, 92.956 134.750 C 92.980 138.188, 93.389 141, 93.864 141 C 94.339 141, 95.502 138.975, 96.447 136.500 C 98.162 132.010, 98.176 132, 103.083 132 C 108 132, 108 132, 107.976 141.750 C 107.946 154.186, 106.851 158.901, 103.344 161.702 C 101.143 163.460, 100.897 164.023, 102.121 164.493 C 102.965 164.817, 104.887 164.613, 106.393 164.041 C 109.899 162.708, 118.083 162.701, 121.574 164.028 C 125.515 165.526, 125.673 164.530, 122.133 160.499 C 119 156.930, 119 156.930, 119 144.465 C 119 132, 119 132, 123.536 132 C 127.959 132, 128.119 132.112, 130 136.500 C 131.061 138.975, 132.395 141, 132.964 141 C 133.569 141, 134 138.381, 134 134.711 C 134 130.413, 134.628 127.191, 135.985 124.530 C 137.077 122.388, 137.756 120.423, 137.495 120.162 C 137.234 119.901, 135.229 120.495, 133.039 121.483 C 129.549 123.056, 126.946 123.217, 111.974 122.785 C 101.099 122.471, 94.475 121.875, 93.746 121.146 C 92.769 120.169, 89.970 119.497, 90.015 120.250 M 145.556 122.909 C 145.247 123.409, 146.388 124.990, 148.091 126.423 C 151.187 129.028, 151.187 129.028, 150.843 143.602 C 150.502 158.077, 150.481 158.192, 147.750 160.540 C 146.238 161.840, 145 163.364, 145 163.927 C 145 164.490, 146.238 164.758, 147.750 164.523 C 155.205 163.364, 162.097 163.084, 164.183 163.856 C 168.305 165.381, 169.038 164.005, 165.694 161.020 C 162.500 158.169, 162.500 158.169, 162.179 143.733 C 161.857 129.298, 161.857 129.298, 164.929 126.713 C 166.618 125.292, 168 123.650, 168 123.065 C 168 121.737, 146.373 121.587, 145.556 122.909 M 177.522 122.965 C 177.265 123.380, 178.393 124.911, 180.028 126.367 C 183 129.015, 183 129.015, 183 143.703 C 183 158.266, 182.977 158.414, 180.323 161.185 C 177.192 164.453, 177.782 165.721, 181.718 164.181 C 183.248 163.583, 189.293 162.960, 195.151 162.796 C 201.009 162.633, 205.625 162.211, 205.408 161.857 C 205.191 161.503, 206.147 160.929, 207.532 160.581 C 211.478 159.591, 217.840 153.236, 218.975 149.152 C 220.377 144.103, 220.252 138.538, 218.649 134.702 C 216.952 130.641, 211.207 125.529, 206.836 124.190 C 202.760 122.942, 178.171 121.915, 177.522 122.965 M 217.038 122.750 C 217.059 123.162, 218.807 124.696, 220.922 126.158 C 225.497 129.319, 235.684 141.794, 237.168 146.053 C 238.847 150.868, 237.313 157.906, 233.886 161.107 C 230.739 164.046, 231.358 165.536, 235.166 164.188 C 236.450 163.734, 240.988 163.618, 245.251 163.931 C 249.514 164.244, 253.488 164.338, 254.081 164.140 C 254.675 163.942, 253.706 162.566, 251.928 161.081 C 249.162 158.772, 248.630 157.586, 248.237 152.845 C 247.796 147.524, 247.962 147.057, 252.477 140.904 C 258.172 133.144, 263.256 127.534, 266.548 125.376 C 267.897 124.493, 269 123.372, 269 122.885 C 269 122.398, 264.725 122, 259.500 122 C 250.115 122, 248.836 122.436, 251.218 124.818 C 252.176 125.776, 251.481 126.988, 247.968 130.483 C 243.500 134.930, 243.500 134.930, 240.088 130.839 C 237.219 127.400, 236.861 126.452, 237.838 124.888 C 238.477 123.864, 239 122.796, 239 122.514 C 239 122.231, 234.050 122, 228 122 C 221.950 122, 217.017 122.338, 217.038 122.750 M 193.667 132.667 C 193.300 133.033, 193 137.816, 193 143.294 C 193 153.256, 193 153.256, 197.159 152.591 C 207.322 150.965, 211.855 143.900, 206.832 137.514 C 203.679 133.505, 195.748 130.585, 193.667 132.667 M 40.624 196.750 C 41.647 205.051, 46.248 225.499, 48.181 230.337 C 49.104 232.646, 49.785 233.083, 51.844 232.690 C 53.235 232.424, 54.964 232.433, 55.687 232.710 C 57.358 233.351, 57.406 236.942, 55.750 237.435 C 50.709 238.938, 50.830 238.473, 53.730 245.214 C 55.217 248.671, 58.149 254.650, 60.246 258.500 C 62.343 262.350, 64.945 267.300, 66.030 269.500 C 67.115 271.700, 70.589 276.954, 73.751 281.175 C 76.913 285.396, 80.292 290.278, 81.260 292.023 C 83.020 295.197, 83.020 295.197, 84.827 292.965 C 86.365 291.067, 86.960 290.908, 88.817 291.902 C 90.018 292.545, 91 293.489, 91 294 C 91 295.436, 87.108 297.181, 85.729 296.364 C 82.171 294.256, 103.294 315.630, 108.908 319.819 C 110.884 321.294, 115.291 324.750, 118.702 327.500 C 128.238 335.188, 129.701 336.205, 141.698 343.471 C 148.066 347.328, 153.538 350.007, 154.384 349.683 C 155.202 349.369, 156.107 349.650, 156.396 350.306 C 156.684 350.963, 156.711 350.150, 156.454 348.500 C 156.198 346.850, 156.253 346.063, 156.577 346.750 C 156.901 347.437, 157.804 348, 158.583 348 C 159.363 348, 160 348.482, 160 349.072 C 160 349.661, 161.235 349.998, 162.745 349.822 C 164.255 349.645, 165.553 349.950, 165.630 350.500 C 166.188 354.508, 169 358.213, 169 354.941 C 169 354.359, 169.450 354.160, 170 354.500 C 171.684 355.541, 171.113 354.113, 169 352 C 167.900 350.900, 167 349.393, 167 348.652 C 167 347.911, 161.804 343.973, 155.452 339.902 C 127.219 321.804, 103.584 302.036, 92.202 287 C 90.329 284.525, 87.516 281.075, 85.950 279.334 C 82.893 275.932, 66 248.295, 66 246.694 C 66 246.163, 64.265 241.403, 62.144 236.115 C 58.044 225.890, 55.473 216.256, 54.250 206.540 C 53.510 200.662, 53.416 200.520, 47.500 196.324 C 44.200 193.984, 41.171 192.053, 40.769 192.034 C 40.367 192.015, 40.302 194.137, 40.624 196.750 M 302.767 195.698 C 299.613 197.552, 296.636 199.842, 296.152 200.785 C 295.667 201.728, 294.972 205.538, 294.607 209.250 C 293.409 221.455, 284.065 246.411, 275.003 261.610 C 270.372 269.377, 262.749 280.526, 261.061 282 C 260.746 282.275, 259.167 284.300, 257.552 286.500 C 251.652 294.536, 231.636 313.244, 218.505 322.996 C 211.097 328.498, 204.768 333, 204.441 333 C 204.114 333, 200.544 335.219, 196.506 337.932 C 192.468 340.644, 187.791 343.574, 186.112 344.442 C 181.986 346.576, 180.384 349.528, 183.236 349.743 C 184.382 349.829, 185.586 350.303, 185.910 350.796 C 187.281 352.878, 191.600 352.728, 195.500 350.462 C 197.700 349.183, 200.983 347.446, 202.796 346.600 C 210.729 342.901, 226.721 330.974, 220.597 333.324 C 219.826 333.620, 218.380 333.267, 217.385 332.540 C 215.851 331.418, 215.779 330.972, 216.910 329.608 C 218.945 327.156, 221.865 327.614, 222.589 330.500 C 222.934 331.875, 223.506 332.991, 223.858 332.981 C 224.211 332.971, 228.210 329.933, 232.744 326.231 C 237.278 322.529, 242.341 318.453, 243.994 317.174 C 247.492 314.467, 247.835 313, 244.969 313 C 242.356 313, 241.301 310.271, 243.186 308.386 C 245.054 306.518, 247.793 307.552, 248.192 310.276 C 248.491 312.322, 248.587 312.305, 251.500 309.698 C 256.590 305.142, 263.982 297.535, 263.991 296.844 C 263.996 296.483, 263.181 296.401, 262.180 296.663 C 259.558 297.349, 257.362 294.474, 259 292.500 C 260.609 290.562, 261.907 290.606, 264.195 292.676 C 266.344 294.621, 265.682 295.231, 274.223 283.430 C 281.158 273.848, 296 246.328, 296 243.052 C 296 241.988, 296.457 240.835, 297.016 240.490 C 298.511 239.566, 297.186 238, 294.910 238 C 292.518 238, 291.282 235.317, 292.921 233.683 C 293.573 233.032, 295.503 232.500, 297.209 232.500 C 300.286 232.500, 300.335 232.417, 303.071 222.564 C 305.987 212.065, 309.411 194.622, 308.839 193.181 C 308.653 192.710, 305.920 193.843, 302.767 195.698 M 185.349 194.246 C 185.095 194.656, 185.963 195.482, 187.278 196.081 C 191.864 198.171, 193.394 202.925, 193.097 214.168 C 193.016 217.234, 192.425 218.192, 189.500 220 C 185.656 222.376, 184.984 224, 187.845 224 C 192.058 224, 193 226.911, 193 239.929 C 193 252.200, 193 252.200, 189.500 255.700 C 187.575 257.625, 186 259.493, 185.999 259.850 C 185.999 260.207, 198.486 260.363, 213.749 260.196 C 241.500 259.893, 241.500 259.893, 243.407 263.446 C 246.347 268.922, 247.248 267.826, 246.487 259.703 C 245.705 251.357, 247.100 246.665, 251.606 242.489 C 253.095 241.109, 254.050 239.717, 253.728 239.395 C 252.285 237.951, 246.789 240.410, 244.370 243.582 C 241.763 247, 241.763 247, 225.881 247 C 210 247, 210 247, 210 239 C 210 231, 210 231, 223.974 231 C 237.949 231, 237.949 231, 239.500 234 C 241.573 238.010, 243 237.790, 243 233.460 C 243 228.709, 246.293 222.531, 249.988 220.348 C 251.645 219.369, 253 217.991, 253 217.284 C 253 215.643, 252.327 215.669, 246.877 217.526 C 243.434 218.699, 238.703 218.989, 226.448 218.776 C 210.500 218.500, 210.500 218.500, 210.198 213.250 C 209.895 208, 209.895 208, 224.198 207.923 C 232.064 207.881, 239.227 207.705, 240.116 207.532 C 241.149 207.330, 242.349 208.509, 243.440 210.797 C 244.770 213.585, 245.350 214.060, 246.059 212.939 C 246.560 212.148, 246.976 210.104, 246.985 208.398 C 247.005 204.252, 250.647 199.114, 255.250 196.739 C 257.313 195.675, 259 194.511, 259 194.152 C 259.001 193.239, 185.914 193.332, 185.349 194.246 M 103 194.571 C 103 194.886, 103.675 195.818, 104.500 196.643 C 105.325 197.468, 106 199.585, 106 201.347 C 106 204.826, 101.526 231.353, 99.996 236.944 C 99.478 238.838, 99.283 240.617, 99.563 240.896 C 99.843 241.176, 101.968 239.444, 104.286 237.046 C 109.253 231.908, 115.169 229.043, 122.325 228.310 C 135.221 226.989, 145.884 235.336, 141.840 243.586 C 139.814 247.721, 135.715 250.225, 130.091 250.765 C 125.981 251.160, 123.993 250.742, 119.479 248.533 C 116.423 247.038, 112.956 244.507, 111.774 242.908 C 109.562 239.917, 108 239.166, 108 241.096 C 108 243.490, 103.748 247.943, 99.499 250.001 C 93.550 252.880, 93.196 253.779, 97.722 254.504 C 99.800 254.836, 105.550 256.883, 110.500 259.052 C 115.450 261.221, 121.584 263.379, 124.131 263.847 C 136.700 266.156, 150.671 260.314, 155.433 250.759 C 161.916 237.748, 155.204 222.237, 141.135 217.722 C 134.540 215.605, 124.944 215.507, 118.409 217.489 C 115.709 218.308, 113.396 218.983, 113.269 218.989 C 112.737 219.014, 114.320 209.433, 114.967 208.712 C 115.357 208.279, 123.382 207.693, 132.803 207.411 C 149.930 206.896, 149.930 206.896, 151.444 210.520 C 153.310 214.987, 155 214.218, 155 208.901 C 155 204.473, 158.077 197.568, 160.457 196.655 C 161.306 196.329, 162 195.599, 162 195.031 C 162 194.346, 152.098 194, 132.500 194 C 116.275 194, 103 194.257, 103 194.571 M 68.754 213.722 C 64.009 219.313, 64.009 219.313, 69.754 224.955 C 75.500 230.597, 75.500 230.597, 78.344 227.549 C 79.908 225.872, 82.361 223.256, 83.795 221.735 C 86.402 218.970, 86.402 218.970, 80.985 213.485 C 78.006 210.468, 75.103 208.029, 74.534 208.065 C 73.965 208.101, 71.364 210.647, 68.754 213.722 M 267.096 213.402 C 264.162 216.374, 262.033 219.244, 262.364 219.781 C 262.696 220.318, 264.514 221.491, 266.404 222.387 C 268.339 223.305, 270.419 225.325, 271.164 227.009 C 271.892 228.654, 272.731 230, 273.028 230 C 273.325 230, 275.990 227.548, 278.949 224.551 C 284.952 218.473, 284.995 219.122, 278.101 211.750 C 276.172 209.688, 274.108 208, 273.513 208 C 272.918 208, 270.031 210.431, 267.096 213.402" stroke="none" fill="#152535" fill-rule="evenodd"/></svg>